HIERARCHY
ROOT Hips
{
	OFFSET	0.000000	0.000000	0.000000
	CHANNELS 6 Xposition Yposition Zposition Zrotation Xrotation Yrotation
	JOINT LeftUpLeg
	{
		OFFSET	12.830505	-7.049846	-1.643436
		CHANNELS 3 Zrotation Xrotation Yrotation
		JOINT LeftLeg
		{
			OFFSET	0.620834	-39.957500	-1.919341
			CHANNELS 3 Zrotation Xrotation Yrotation
			JOINT LeftFoot
			{
				OFFSET	-0.413890	-44.704761	-3.870325
				CHANNELS 3 Zrotation Xrotation Yrotation
				JOINT LeftFootHeel
				{
					OFFSET	0.164738	-8.918193	-6.555130
					CHANNELS 3 Zrotation Xrotation Yrotation
					End Site
					{
						OFFSET	-0.604053	0.000000	21.044330
					}
				}
			}
		}
	}
	JOINT RightUpLeg
	{
		OFFSET	-12.830505	-7.049846	-1.643436
		CHANNELS 3 Zrotation Xrotation Yrotation
		JOINT RightLeg
		{
			OFFSET	-0.620834	-39.957500	-1.919341
			CHANNELS 3 Zrotation Xrotation Yrotation
			JOINT RightFoot
			{
				OFFSET	0.413890	-44.704761	-3.870325
				CHANNELS 3 Zrotation Xrotation Yrotation
				JOINT RightFootHeel
				{
					OFFSET	-0.164738	-8.918193	-6.555130
					CHANNELS 3 Zrotation Xrotation Yrotation
					End Site
					{
						OFFSET	0.604053	0.000000	21.044330
					}
				}
			}
		}
	}
	JOINT Spine
	{
		OFFSET	0.000000	12.498170	1.820647
		CHANNELS 3 Zrotation Xrotation Yrotation
		JOINT Spine1
		{
			OFFSET	0.000000	7.620000	0.000000
			CHANNELS 3 Zrotation Xrotation Yrotation
			JOINT LeftShoulder
			{
				OFFSET	9.167800	29.136339	-5.551221
				CHANNELS 3 Zrotation Xrotation Yrotation
				JOINT LeftArm
				{
					OFFSET	12.133453	-3.880866	1.461963
					CHANNELS 3 Zrotation Xrotation Yrotation
					JOINT LeftForeArm
					{
						OFFSET	2.507115	-31.664908	-1.069404
						CHANNELS 3 Zrotation Xrotation Yrotation
						JOINT LeftHand
						{
							OFFSET	4.116172	-24.512624	5.009439
							CHANNELS 3 Zrotation Xrotation Yrotation
							End Site
							{
								OFFSET	-0.213136	-10.931856	2.182134
							}
						}
					}
				}
			}
			JOINT RightShoulder
			{
				OFFSET	-9.167800	29.136339	-5.551221
				CHANNELS 3 Zrotation Xrotation Yrotation
				JOINT RightArm
				{
					OFFSET	-12.133453	-3.880866	1.461963
					CHANNELS 3 Zrotation Xrotation Yrotation
					JOINT RightForeArm
					{
						OFFSET	-2.507115	-31.664908	-1.069404
						CHANNELS 3 Zrotation Xrotation Yrotation
						JOINT RightHand
						{
							OFFSET	-4.116172	-24.512624	5.009439
							CHANNELS 3 Zrotation Xrotation Yrotation
							End Site
							{
								OFFSET	0.213136	-10.931856	2.182134
							}
						}
					}
				}
			}
			JOINT Neck
			{
				OFFSET	0.000000	32.926272	-3.635654
				CHANNELS 3 Zrotation Xrotation Yrotation
				JOINT Head
				{
					OFFSET	0.000000	12.481178	4.646143
					CHANNELS 3 Zrotation Xrotation Yrotation
					End Site
					{
						OFFSET	0.000000	17.715204	-2.222063
					}
				}
			}
		}
	}
}
MOTION
Frames:     12
Frame Time: 0.016667
0.000000	97.696157	0.000000	-6.860372	5.234922	48.973900	9.438653	-32.843060	12.664284	4.525454	38.520973	-4.127619	-5.987017	-12.684792	3.591126	0.	0.	0.	-20.897411	-27.277002	-21.241573	-0.243609	33.758705	-1.956600	8.637584	-6.504558	-11.241636	0.	0.	0.	-0.000000	-0.000001	0.000003	-3.948479	32.005116	6.327120	13.938553	-6.003248	10.157129	-33.124752	-31.798164	-23.711630	-108.044365	-32.907951	-86.783073	12.207114	-7.929212	-8.377716	-9.157870	-4.943171	2.920291	-25.971357	-33.678394	-33.055111	-38.603317	-119.661674	-46.512218	-6.589049	-3.237652	15.015128	-2.389274	-11.318775	-14.958482	13.409575	-12.857530	-18.966854	
0.002938	97.696516	-0.001470	-6.856006	5.223838	48.952194	9.449156	-32.829643	12.674763	4.522266	38.529762	-4.181781	-5.969572	-12.700533	3.658133	0.	0.	0.	-20.879293	-27.270704	-21.237747	-0.257841	33.754704	-1.928976	8.637585	-6.504563	-11.241641	0.	0.	0.	0.000000	-0.000001	0.000000	-3.956717	32.014172	6.353049	13.949327	-6.002755	10.169353	-33.140659	-31.790918	-23.721657	-108.025734	-32.913269	-86.771370	12.201180	-7.944542	-8.375979	-9.157870	-4.943172	2.920292	-25.971350	-33.678394	-33.055111	-38.532444	-119.680077	-46.441883	-6.583630	-3.199344	15.022981	-2.383158	-11.298888	-14.952404	13.419278	-12.865651	-18.966936	
-0.003483	97.699345	-0.012084	-6.845309	5.198800	48.914486	9.472528	-32.805950	12.666191	4.497811	38.541279	-4.159300	-5.962083	-12.707280	3.689112	0.	0.	0.	-20.844484	-27.253513	-21.231199	-0.283969	33.747379	-1.878235	8.637586	-6.504558	-11.241641	0.	0.	0.	-0.000000	-0.000002	0.000000	-3.968823	32.036060	6.398273	13.958908	-6.002303	10.180223	-33.154819	-31.784473	-23.730572	-107.997276	-32.921352	-86.753525	12.192128	-7.967908	-8.373342	-9.157871	-4.943167	2.920292	-25.968481	-33.677910	-33.078339	-38.507393	-119.684097	-46.428631	-6.617962	-3.157639	15.000824	-2.356037	-11.274724	-14.947407	13.415887	-12.876560	-18.959667	
-0.005215	97.700469	-0.013067	-6.841549	5.189989	48.901325	9.483937	-32.795338	12.679545	4.497498	38.543358	-4.176742	-5.957779	-12.711155	3.706873	0.	0.	0.	-20.832296	-27.247395	-21.229124	-0.293234	33.744762	-1.860233	8.637584	-6.504558	-11.241634	0.	0.	0.	0.000000	0.000000	0.000004	-3.973016	32.043770	6.414068	13.958913	-6.002303	10.180223	-33.154823	-31.784483	-23.730572	-107.988403	-32.923882	-86.747963	12.189301	-7.975190	-8.372532	-9.157870	-4.943172	2.920294	-25.965956	-33.678467	-33.103237	-38.507591	-119.678764	-46.440010	-6.607824	-3.151021	14.995314	-2.345497	-11.268254	-14.946461	13.412591	-12.879498	-18.956472	
-0.011395	97.703725	-0.017283	-6.830540	5.164106	48.862179	9.517414	-32.765297	12.712566	4.492094	38.550171	-4.212309	-5.946933	-12.720880	3.751519	0.	0.	0.	-20.796309	-27.229952	-21.220758	-0.319296	33.737438	-1.809587	8.637584	-6.504558	-11.241648	0.	0.	0.	0.000000	0.000002	-0.000006	-3.964139	32.064568	6.446648	13.948646	-6.000068	10.175905	-33.156906	-31.785450	-23.721409	-107.976578	-32.927250	-86.740509	12.178593	-7.993842	-8.370497	-9.168933	-4.934778	2.918102	-25.962727	-33.687546	-33.175716	-38.508690	-119.661964	-46.475494	-6.568338	-3.136064	14.989388	-2.326853	-11.262908	-14.947070	13.383975	-12.884766	-18.943192	
-0.013565	97.705072	-0.019069	-6.827167	5.156099	48.849556	9.528230	-32.755569	12.725500	4.491950	38.551022	-4.219495	-5.945146	-12.722477	3.758850	0.	0.	0.	-20.784937	-27.224993	-21.216322	-0.326543	33.735397	-1.795499	8.637586	-6.504564	-11.241644	0.	0.	0.	-0.000000	-0.000002	-0.000002	-3.958312	32.070656	6.455086	13.946005	-5.999646	10.172080	-33.155602	-31.783674	-23.712362	-107.979698	-32.925678	-86.743980	12.168687	-7.998879	-8.370928	-9.172222	-4.929398	2.915440	-25.965212	-33.693645	-33.183445	-38.493690	-119.649658	-46.468658	-6.561298	-3.133201	15.001412	-2.314329	-11.261925	-14.948325	13.367987	-12.889544	-18.937304	
-0.020515	97.708366	-0.025015	-6.822955	5.143143	48.813042	9.556886	-32.738049	12.765556	4.491951	38.551014	-4.219493	-5.945148	-12.722471	3.758852	0.	0.	0.	-20.757969	-27.221857	-21.202274	-0.344338	33.730404	-1.760878	8.637584	-6.504558	-11.241641	0.	0.	0.	-0.000000	0.000000	0.000005	-3.941786	32.077126	6.476791	13.938839	-5.998704	10.158493	-33.144386	-31.771738	-23.675814	-107.997879	-32.916416	-86.764175	12.131236	-8.010027	-8.374350	-9.177000	-4.925644	2.899716	-25.966698	-33.702473	-33.213108	-38.539803	-119.661461	-46.512878	-6.554043	-3.136126	15.027534	-2.292105	-11.258271	-14.950027	13.340773	-12.910946	-18.933475	
-0.025146	97.709345	-0.028677	-6.823444	5.140786	48.790272	9.572944	-32.734268	12.785251	4.487329	38.552620	-4.211172	-5.945147	-12.722472	3.758851	0.	0.	0.	-20.744434	-27.226170	-21.192978	-0.353770	33.727741	-1.742522	8.637587	-6.504558	-11.241638	0.	0.	0.	-0.000001	-0.000001	-0.000001	-3.933513	32.076294	6.480359	13.937320	-5.997575	10.157955	-33.145115	-31.771042	-23.659122	-108.000816	-32.914776	-86.768288	12.103971	-8.015759	-8.378066	-9.176653	-4.927936	2.896498	-25.968599	-33.708576	-33.225380	-38.562130	-119.658676	-46.513683	-6.539275	-3.140545	15.022875	-2.284366	-11.251534	-14.959696	13.339331	-12.926725	-18.915754	
-0.030456	97.708027	-0.032232	-6.823893	5.138644	48.769489	9.585991	-32.735905	12.774047	4.462860	38.563850	-4.192417	-5.939056	-12.727906	3.783810	0.	0.	0.	-20.732088	-27.230095	-21.184504	-0.362383	33.725311	-1.725757	8.637583	-6.504560	-11.241640	0.	0.	0.	0.000000	-0.000000	-0.000005	-3.922642	32.074528	6.487068	13.934565	-5.997097	10.150483	-33.146191	-31.771772	-23.654549	-108.000870	-32.913471	-86.772377	12.056641	-8.003850	-8.391581	-9.177141	-4.929308	2.886252	-25.978338	-33.712029	-33.234104	-38.602196	-119.670174	-46.536652	-6.549507	-3.142830	15.022069	-2.277518	-11.242230	-14.980316	13.341292	-12.941533	-18.894045	
-0.032745	97.707058	-0.033471	-6.824100	5.137643	48.759823	9.591921	-32.737068	12.766497	4.449764	38.570438	-4.187742	-5.934505	-12.731964	3.802456	0.	0.	0.	-20.726450	-27.233057	-21.174116	-0.362385	33.725315	-1.725764	8.637581	-6.504557	-11.241646	0.	0.	0.	0.000000	0.000000	-0.000001	-3.916270	32.073410	6.490802	13.933031	-5.997058	10.144817	-33.146488	-31.772057	-23.653303	-108.000870	-32.912548	-86.774849	12.032738	-7.996168	-8.399158	-9.177508	-4.929870	2.879206	-25.994064	-33.709969	-33.245605	-38.607815	-119.679398	-46.544613	-6.554060	-3.137873	15.021611	-2.276168	-11.237143	-14.992055	13.347251	-12.945288	-18.884237	
-0.039612	97.704665	-0.037781	-6.824679	5.134861	48.732914	9.608356	-32.740402	12.745014	4.413207	38.587791	-4.165184	-5.924067	-12.741255	3.845193	0.	0.	0.	-20.710489	-27.238405	-21.161549	-0.372531	33.722450	-1.705987	8.637585	-6.504557	-11.241641	0.	0.	0.	-0.000000	0.000000	-0.000004	-3.898063	32.072426	6.483955	13.932652	-5.995676	10.143818	-33.146599	-31.772640	-23.652929	-107.994995	-32.895000	-86.779839	11.988732	-7.983862	-8.419029	-9.174636	-4.936571	2.873087	-26.029346	-33.706749	-33.233204	-38.567825	-119.689384	-46.493408	-6.566841	-3.116934	15.019052	-2.303714	-11.222692	-15.008272	13.395983	-12.959573	-18.867908	
-0.042301	97.704384	-0.038998	-6.825053	5.133100	48.715843	9.620114	-32.738415	12.754957	4.406036	38.592716	-4.174664	-5.918671	-12.746060	3.867248	0.	0.	0.	-20.700520	-27.243629	-21.143188	-0.372535	33.722450	-1.705990	8.637581	-6.504559	-11.241645	0.	0.	0.	0.000001	0.000000	0.000006	-3.885418	32.072231	6.474753	13.933778	-5.994640	10.145864	-33.146442	-31.772972	-23.653624	-107.991882	-32.885048	-86.784340	11.980372	-7.982944	-8.427369	-9.171779	-4.939442	2.872096	-26.035542	-33.713181	-33.209297	-38.581699	-119.680595	-46.480972	-6.576348	-3.126126	15.016392	-2.310993	-11.217750	-15.004497	13.411734	-12.979082	-18.868032	
